{"title":"Klangkarussell Ft. Will Heard - Sonnentanz [Music Video] 720p [S","uid":9461241,"size":38846132,"categoryP":"video","categoryS":"music_videos","magnet":"?xt=urn:btih:d3a15de8a42c8b8740b64bbee4771c229214ffd4&amp;dn=Klangkarussell+Ft.+Will+Heard+-+Sonnentanz+%5BMusic+Video%5D+720p+%5BS&amp;tr=udp%3A%2F%2Ftracker.openbittorrent.com%3A80&amp;tr=udp%3A%2F%2Fopen.demonii.com%3A1337&amp;tr=udp%3A%2F%2Ftracker.coppersurfer.tk%3A6969&amp;tr=udp%3A%2F%2Fexodus.desync.com%3A6969","seeders":2,"leechers":0,"uploader":"Sbyky","files":1,"time":1389315563,"description":"\n\nGeneral\nComplete name                            : Klangkarussell Ft. Will Heard - Sonnentanz [Music Video] 720p [Sbyky].MP4\nFormat                                   : MPEG-4\nFormat profile                           : Base Media / Version 2\nCodec ID                                 : mp42\nFile size                                : 37.0 MiB\nDuration                                 : 3mn 50s\nOverall bit rate mode                    : Variable\nOverall bit rate                         : 1 349 Kbps\nEncoded date                             : UTC 2013-12-31 20:15:38\nTagged date                              : UTC 2013-12-31 20:15:38\n\nVideo\nID                                       : 1\nFormat                                   : AVC\nFormat/Info                              : Advanced Video Codec\nFormat profile                           : &lt;a class=&quot;__cf_email__&quot; href=&quot;/cdn-cgi/l/email-protection&quot; data-cfemail=&quot;3b73525c537b7708150a&quot;&gt;[email&amp;#160;protected]&lt;/a&gt;&lt;script cf-hash='f9e31' type=&quot;text/javascript&quot;&gt;\n/* &lt;![CDATA[ */!function(){try{var t=&quot;currentScript&quot;in document?document.currentScript:function(){for(var t=document.getElementsByTagName(&quot;script&quot;),e=t.length;e--;)if(t[e].getAttribute(&quot;cf-hash&quot;))return t[e]}();if(t&amp;&amp;t.previousSibling){var e,r,n,i,c=t.previousSibling,a=c.getAttribute(&quot;data-cfemail&quot;);if(a){for(e=&quot;&quot;,r=parseInt(a.substr(0,2),16),n=2;a.length-n;n+=2)i=parseInt(a.substr(n,2),16)^r,e+=String.fromCharCode(i);e=document.createTextNode(e),c.parentNode.replaceChild(e,c)}}}catch(u){}}();/* ]]&gt; */&lt;/script&gt;\nFormat settings, CABAC                   : Yes\nFormat settings, ReFrames                : 1 frame\nFormat settings, GOP                     : M=1, N=60\nCodec ID                                 : avc1\nCodec ID/Info                            : Advanced Video Coding\nDuration                                 : 3mn 50s\nBit rate                                 : 1 155 Kbps\nMaximum bit rate                         : 2 955 Kbps\nWidth                                    : 1 280 pixels\nHeight                                   : 720 pixels\nDisplay aspect ratio                     : 16:9\nFrame rate mode                          : Constant\nFrame rate                               : 25.000 fps\nColor space                              : YUV\nChroma subsampling                       : 4:2:0\nBit depth                                : 8 bits\nScan type                                : Progressive\nBits/(Pixel*Frame)                       : 0.050\nStream size                              : 31.7 MiB (86%)\nTagged date                              : UTC 2013-12-31 20:15:42\n\nAudio\nID                                       : 2\nFormat                                   : AAC\nFormat/Info                              : Advanced Audio Codec\nFormat profile                           : LC\nCodec ID                                 : 40\nDuration                                 : 3mn 50s\nBit rate mode                            : Variable\nBit rate                                 : 192 Kbps\nMaximum bit rate                         : 201 Kbps\nChannel(s)                               : 2 channels\nChannel positions                        : Front: L R\nSampling rate                            : 44.1 KHz\nCompression mode                         : Lossy\nStream size                              : 5.27 MiB (14%)\nTitle                                    : IsoMedia File Produced by Google, 5-11-2011\nEncoded date                             : UTC 2013-12-31 20:15:41\nTagged date                              : UTC 2013-12-31 20:15:42\n\nShared By Sbyky\n","torrent":{"xt":"urn:btih:d3a15de8a42c8b8740b64bbee4771c229214ffd4","amp;dn":"Klangkarussell+Ft.+Will+Heard+-+Sonnentanz+%5BMusic+Video%5D+720p+%5BS","amp;tr":["udp%3A%2F%2Ftracker.openbittorrent.com%3A80","udp%3A%2F%2Fopen.demonii.com%3A1337","udp%3A%2F%2Ftracker.coppersurfer.tk%3A6969","udp%3A%2F%2Fexodus.desync.com%3A6969"],"infoHash":"d3a15de8a42c8b8740b64bbee4771c229214ffd4","infoHashBuffer":{"type":"Buffer","data":[211,161,93,232,164,44,139,135,64,182,75,190,228,119,28,34,146,20,255,212]},"announce":[],"urlList":[]}}